<?xml version="1.0" encoding="UTF-8" standalone="no"?>
<svg width="313" height="313" viewBox="0 0 313 313" fill="none" xmlns="http://www.w3.org/2000/svg">
<g clip-path="url(#clip0_2_124)">
<circle cx="156.5" cy="156.5" r="156.5" fill="#181823"/>
<path fill-rule="evenodd" clip-rule="evenodd" d="M-243 156V455H-239.826H-236.651L-239.076 452.419L-241.5 449.839V156.5V-136.839L-239.126 -139.366L-236.751 -141.893L-234.626 -142.311L-232.5 -142.728L-237.75 -142.864L-243 -143V156ZM548.5 -142.284L550.5 -141.8L552.75 -139.726L555 -137.651V-140.326V-143L550.75 -142.884L546.5 -142.768L548.5 -142.284ZM224.748 97.439L219.997 98.794L215.015 101.991L210.033 105.188L206.617 109.844L203.201 114.5L201.484 119.754L199.767 125.007L200.189 131.254L200.611 137.5L202.372 141.15L204.133 144.799L207.625 148.292L211.117 151.784L216.809 154.768L222.5 157.753L234 161.517L245.5 165.281L251.148 168.104L256.797 170.926L258.785 173.454L260.774 175.983L261.43 179.476L262.085 182.97L260.941 187.218L259.798 191.466L255.641 195.622L251.485 199.779L246.061 201.389L240.637 203H237.5H234.363L229.126 201.445L223.89 199.89L220.079 196.079L216.268 192.268L214.498 187.384L212.728 182.5L210.223 180.177L207.719 177.854L205.109 178.47L202.5 179.085L200.677 181.244L198.853 183.403L199.506 186.952L200.158 190.5L202.023 194.751L203.888 199.002L209.079 204.49L214.27 209.979L220.156 212.92L226.042 215.861L231.479 216.541L236.916 217.22L243.708 216.052L250.5 214.884L255.62 212.557L260.74 210.23L264.682 206.668L268.624 203.107L271.225 198.304L273.827 193.5L274.818 188L275.81 182.5L274.98 177.346L274.151 172.193L272.642 169.275L271.134 166.358L267.317 162.611L263.5 158.865L255.5 155.037L247.5 151.208L236.399 147.571L225.299 143.934L221.285 141.332L217.271 138.729L215.636 135.96L214 133.191V129.056V124.92L215.903 121.21L217.805 117.5L220.153 115.346L222.5 113.192L226.372 111.596L230.244 110H235.926H241.607L246.751 112.563L251.896 115.127L254.948 119.735L258 124.343V125.537V126.73L260.073 129.365L262.145 132H265.073H268L270.113 129.887L272.225 127.775L271.649 124.223L271.073 120.672L268.351 115.292L265.629 109.912L261.239 105.867L256.85 101.821L251.175 99.181L245.5 96.541L237.5 96.313L229.5 96.084L224.748 97.439ZM40.571 99.571L39 101.143V156.515V211.887L41.223 213.443L43.445 215H45.088H46.73L49.355 212.935L51.98 210.871L52.24 165.185L52.5 119.5L74.606 150.508L96.711 181.516L98.295 182.83L99.879 184.145L102.69 183.822L105.5 183.5L123.25 158.607L141 133.714V131.512V129.31L139.171 127.655L137.343 126H134.71H132.078L130.289 127.925L128.5 129.849L115.5 148.389L102.5 166.929L101.933 166.965L101.366 167L80.015 136.75L58.663 106.5L55.265 102.25L51.866 98H47.004H42.143L40.571 99.571ZM153.571 99.571L152 101.143V156.515V211.887L154.223 213.443L156.445 215H158.088H159.73L162.365 212.927L165 210.855V156.65V102.445L163.443 100.223L161.887 98H158.515H155.143L153.571 99.571ZM552.5 453L550.69 455H552.845H555V453V451H554.655H554.31L552.5 453Z" fill="#FEC046"/>
</g>
<defs>
<clipPath id="clip0_2_124">
<rect width="313" height="313" fill="white"/>
</clipPath>
</defs>
</svg>
